<?xml version="1.0" ?><svg data-name="Layer 1" id="Layer_1" viewBox="0 0 512 512" xmlns="http://www.w3.org/2000/svg" xmlns:xlink="http://www.w3.org/1999/xlink"><defs><style>.cls-1{fill:url(#linear-gradient);}.cls-2{fill:url(#linear-gradient-2);}</style><linearGradient gradientUnits="userSpaceOnUse" id="linear-gradient" x1="11.15" x2="508.536" y1="503.208" y2="5.822"><stop offset="0" stop-color="#006fc9"/><stop offset="1" stop-color="#00baf6"/></linearGradient><linearGradient id="linear-gradient-2" x1="9.971" x2="507.357" xlink:href="#linear-gradient" y1="502.029" y2="4.643"/></defs><title/><path class="cls-1" d="M302.915,265.679a46.816,46.816,0,0,0-11.044-9.8c-2.76-1.735-5.652-3.278-8.482-4.774-12.285-6.5-25.656-10.677-37.865-17.274-11.954-6.461-15.575-24.853,0-30.207,17.387-5.978,43.637,4.917,43.637,4.917A12.654,12.654,0,0,0,302.4,187.681c-12.951-12.951-65.87-16.275-87.964,5.956a38.4,38.4,0,0,0-10.276,33.9c2.47,13.506,11.061,22.368,22.527,29.02,14.288,8.288,30.6,12.778,44.5,21.621,11.467,7.291,12.863,24.468.372,29.566-21.1,8.614-50.484-7.293-50.484-7.293a12.649,12.649,0,0,0-13.241,2.948c-4.945,4.944-4.712,12.74,0,17.906,14.545,15.947,71,20.953,94.438-2.939,9.486-9.669,11.395-24.072,8.086-36.79C308.783,275.5,306.8,270.622,302.915,265.679Z"/><path class="cls-2" d="M256,0C114.615,0,0,114.615,0,256S114.615,512,256,512,512,397.385,512,256,397.385,0,256,0ZM402.667,318.857a83.759,83.759,0,0,1-115.453,77.582A142.6,142.6,0,0,1,118.591,231.31,83.72,83.72,0,0,1,227.21,116.615,142.691,142.691,0,0,1,398.033,291.566,83.54,83.54,0,0,1,402.667,318.857Z"/></svg>